<svg xmlns="http://www.w3.org/2000/svg" width="400" height="90.94" fill="none" xmlns:v="https://vecta.io/nano"><g clip-path="url(#A)" transform="scale(2.2180572)"><path d="M40.602 20.509c0 8.362-4.953 15.555-12.056 18.748l-6.745-6.862a1.54 1.54 0 0 1-.44-1.078v-2.932a.76.76 0 0 1 .757-.765h6.512l1.782.784c.322.141.698.011.867-.3l3.865-7.111a1.54 1.54 0 0 0 .187-.736v-1.673c0-.191-.078-.375-.214-.507l-7.811-7.868c-.064-.063-.146-.109-.235-.13l-7.604-1.825a1.51 1.51 0 0 1-.643-.333l-.48-.421-2.439-2.134c-.084-.074-.215-.07-.297.006-.942.861-1.452 1.57-1.698 2.51-.411 1.468-.059 2.771.521 3.56.036.05.072.098.11.142l2.909 2.943c.142.141.22.335.22.537l.002 3.393c0 .221-.264.331-.419.175l-4.741-4.787c-.128-.129-.335-.129-.464 0l-1.951 1.964c-.128.13-.128.339 0 .469l6.738 6.804a4.2 4.2 0 0 1 1.212 2.954v6.759c0 .453.178.888.495 1.208l6.412 6.477c-1.212.287-2.465.465-3.751.52l-5.062-5.111a3.82 3.82 0 0 1-1.102-2.686v-6.994c0-.403-.159-.789-.44-1.074L7.96 18.431c-.128-.129-.336-.129-.464 0l-1.965 1.98c-.128.129-.128.339 0 .469l5.716 5.771a.77.77 0 0 1 .22.537v3.384c0 .22-.263.331-.418.175l-7.561-7.628c-.119-.12-.321-.035-.322.134l-.009 4.052a.96.96 0 0 0 .277.678l12.419 12.542C6.537 38.422-.362 29.849.015 19.718.401 9.341 8.6.766 18.859.05 30.723-.777 40.602 8.7 40.602 20.509" fill="#000"/></g><g fill="#000"><path fill-rule="evenodd" d="M158.441 30.619c.934.9 2.053 1.35 3.359 1.35s2.407-.45 3.303-1.35c.895-.938 1.343-2.082 1.343-3.432s-.448-2.4-1.343-3.263c-.896-.9-1.997-1.35-3.303-1.35s-2.426.45-3.359 1.35c-.895.862-1.343 1.951-1.343 3.263s.448 2.494 1.343 3.432z"/><path d="M165.7 35.727h-7.854v31.566h7.854z"/><path d="M131.915 67.293h8.106V30.976h12.59v-7.275h-33.285v7.275h12.59zm40.142-.001V35.98h6.469l.588 4.195c.941-1.536 2.314-2.777 4.117-3.722 1.803-.985 3.842-1.477 6.116-1.477s4.097.492 5.705 1.477 2.842 2.383 3.705 4.194c.901-1.654 2.274-3.013 4.117-4.076 1.882-1.064 4.019-1.595 6.41-1.595 3.215 0 5.782 1.064 7.704 3.19 1.96 2.087 2.94 4.884 2.94 8.39v20.737h-7.998V46.909c0-1.536-.45-2.757-1.353-3.663-.862-.946-2.038-1.418-3.528-1.418-2.078 0-3.783.61-5.116 1.831-1.294 1.221-1.94 2.777-1.94 4.667V67.29h-7.998V46.909c0-1.536-.45-2.757-1.353-3.663-.862-.946-2.038-1.418-3.528-1.418-2.079 0-3.764.61-5.057 1.831s-1.94 2.777-1.94 4.667V67.29h-8.057zm83.026-15.871c-.04-3.328-.708-6.226-2.003-8.693-1.295-2.506-3.081-4.425-5.361-5.756s-4.906-1.997-7.892-1.997-5.734.705-8.129 2.115c-2.393 1.371-4.279 3.328-5.654 5.874-1.335 2.506-2.003 5.404-2.003 8.693s.688 6.01 2.063 8.517c1.373 2.467 3.298 4.405 5.771 5.815 2.513 1.371 5.359 2.056 8.542 2.056 3.729 0 6.869-.94 9.422-2.819 1.823-1.37 3.214-3.129 4.177-5.276l-7.206-1.925a6.08 6.08 0 0 1-2.152 2.326c-1.14.705-2.533 1.057-4.183 1.057-2.316 0-4.241-.744-5.771-2.232s-2.455-3.446-2.768-5.873h23.148v-1.88zm-22.795-3.465c.51-1.958 1.433-3.485 2.768-4.582 1.335-1.136 2.926-1.703 4.771-1.703s3.318.549 4.536 1.645 2.041 2.642 2.473 4.64zm39.735 20.087c-4.531 0-8.018-.94-10.463-2.82-1.695-1.304-2.846-3.003-3.462-5.098l7.364-1.961c.264.985.796 1.772 1.595 2.36 1.102.744 2.562 1.116 4.374 1.116 1.537 0 2.719-.274 3.544-.822.827-.588 1.242-1.39 1.242-2.408 0-.666-.177-1.175-.532-1.527-.315-.391-.688-.666-1.122-.822-.433-.196-1.3-.509-2.6-.94l-3.959-1.292c-2.127-.666-3.902-1.351-5.319-2.056-1.377-.743-2.502-1.703-3.367-2.878-.827-1.214-1.242-2.722-1.242-4.523 0-2.858 1.062-5.13 3.192-6.813 2.127-1.723 5.119-2.584 8.983-2.584s6.834.96 9.158 2.878c1.794 1.427 3.021 3.326 3.68 5.701l-7.062 1.881c-.231-1.265-.796-2.226-1.699-2.882-1.025-.783-2.384-1.175-4.079-1.175-1.34 0-2.382.255-3.132.764s-1.122 1.214-1.122 2.114c0 .626.197 1.155.59 1.586.435.391.887.685 1.36.881s1.3.49 2.482.881l3.604 1.234c2.442.783 4.374 1.566 5.791 2.35 1.42.744 2.502 1.703 3.252 2.878.787 1.136 1.182 2.624 1.182 4.464 0 2.976-1.085 5.306-3.252 6.99s-5.161 2.526-8.983 2.526m22.109-2.117c2.466 1.41 5.363 2.115 8.688 2.115 4.188 0 7.632-1.194 10.334-3.583a13.29 13.29 0 0 0 3.7-5.415l-7.486-2.007c-.424.996-1.02 1.844-1.792 2.546-1.251 1.136-2.837 1.703-4.756 1.703-2.466 0-4.461-.901-5.987-2.702s-2.291-4.229-2.291-7.283.745-5.267 2.231-6.99c1.488-1.762 3.445-2.643 5.871-2.643 1.956 0 3.6.587 4.931 1.762.94.802 1.615 1.798 2.03 2.99l7.561-2.028a12.42 12.42 0 0 0-1.488-3.136c-1.291-1.997-3.052-3.544-5.283-4.64s-4.795-1.645-7.69-1.645c-3.132 0-5.931.666-8.398 1.997-2.427 1.331-4.343 3.231-5.751 5.698-1.371 2.467-2.056 5.345-2.056 8.635s.645 6.089 1.939 8.635c1.329 2.545 3.227 4.542 5.694 5.991m50.588-29.957l-.708 4.699c-.903-1.762-2.316-3.152-4.241-4.17-1.885-1.018-4.026-1.527-6.421-1.527-2.748 0-5.224.705-7.422 2.115-2.16 1.371-3.848 3.308-5.066 5.815-1.218 2.467-1.825 5.286-1.825 8.457s.628 6.148 1.885 8.693c1.255 2.507 2.983 4.464 5.184 5.874 2.238 1.41 4.751 2.115 7.539 2.115 2.12 0 4.006-.411 5.656-1.234s2.946-1.958 3.886-3.407v3.701h8.012v-31.13h-6.479zm-3.771 22.673c-1.453 1.88-3.376 2.819-5.771 2.819s-4.281-.921-5.774-2.761c-1.491-1.88-2.238-4.308-2.238-7.284s.747-5.248 2.238-7.049c1.493-1.841 3.438-2.761 5.831-2.761s4.263.901 5.716 2.702c1.493 1.802 2.238 4.152 2.238 7.049s-.745 5.404-2.238 7.284" fill-rule="evenodd"/><path d="M364.662 23.701h-7.854v43.591h7.854z"/><path fill-rule="evenodd" d="M400 51.421c-.04-3.328-.708-6.226-2.003-8.693-1.295-2.506-3.081-4.425-5.359-5.756s-4.909-1.997-7.894-1.997-5.731.705-8.127 2.115c-2.396 1.371-4.281 3.328-5.656 5.874-1.333 2.506-2.001 5.404-2.001 8.693s.685 6.01 2.061 8.516a14.97 14.97 0 0 0 5.771 5.815c2.513 1.371 5.361 2.056 8.542 2.056 3.731 0 6.872-.94 9.425-2.819 1.821-1.37 3.214-3.129 4.174-5.276l-7.204-1.925c-.515.968-1.231 1.742-2.154 2.326-1.14.705-2.533 1.057-4.181 1.057-2.318 0-4.241-.744-5.774-2.232s-2.453-3.446-2.768-5.873H400v-1.88zm-22.795-3.465c.512-1.958 1.433-3.485 2.77-4.582 1.333-1.136 2.923-1.703 4.769-1.703s3.318.549 4.536 1.645 2.043 2.643 2.473 4.64z"/></g><defs><clipPath id="A"><rect width="40.602" height="41" rx="20.301" fill="#fff"/></clipPath></defs></svg>